<svg data-v-423bf9ae="" xmlns="http://www.w3.org/2000/svg" viewBox="0 0 1011.2926204891147 193" class="fontAboveSlogan"><!----><!----><!----><g data-v-423bf9ae="" id="5dfc723b-45c8-4d2d-b6de-d2fc54534c15" fill="white" transform="matrix(9.546539611246832,0,0,9.546539611246832,4.587993070770779,-39.810001460161146)"><path d="M6.54 9.00C7.46 8.65 8.06 7.83 8.06 6.76C8.06 5.31 6.96 4.31 5.42 4.31L1.02 4.31L1.02 14L5.85 14C7.38 14 8.47 12.96 8.47 11.45C8.47 10.19 7.70 9.27 6.54 9.00ZM6.57 7.06C6.57 7.90 5.96 8.51 5.12 8.51L2.55 8.51L2.55 5.64L5.12 5.64C5.96 5.64 6.57 6.23 6.57 7.06ZM5.47 12.67L2.55 12.67L2.55 9.73L5.47 9.73C6.30 9.73 6.92 10.35 6.92 11.20C6.92 12.05 6.30 12.67 5.47 12.67ZM16.79 10.57C16.77 8.48 15.25 6.99 13.12 6.99C10.99 6.99 9.44 8.48 9.44 10.56C9.44 12.63 10.99 14.13 13.12 14.13C14.81 14.13 16.28 13.03 16.67 11.51L15.22 11.51C14.95 12.33 14.11 12.95 13.13 12.95C11.94 12.95 11.03 12.15 10.85 11.00L16.74 11.00C16.77 10.86 16.79 10.71 16.79 10.57ZM13.13 8.16C14.27 8.16 15.18 8.88 15.41 9.90L10.89 9.90C11.14 8.86 12.01 8.16 13.13 8.16ZM23.60 7.11L23.60 8.11C23.00 7.41 22.12 6.99 21.10 6.99C19.15 6.99 17.72 8.48 17.72 10.56C17.72 12.63 19.15 14.13 21.10 14.13C22.12 14.13 23.00 13.71 23.60 13.01L23.60 14L25.03 14L25.03 7.11ZM21.39 12.88C20.12 12.88 19.19 11.91 19.19 10.56C19.19 9.21 20.12 8.23 21.39 8.23C22.68 8.23 23.60 9.21 23.60 10.56C23.60 11.91 22.68 12.88 21.39 12.88ZM28.22 8.72L28.22 7.11L26.80 7.11L26.80 14L28.22 14L28.22 10.60C28.22 9.18 29.22 8.34 30.81 8.34L30.81 6.93C29.60 6.93 28.69 7.59 28.22 8.72ZM31.81 4.31L31.81 14L33.24 14L33.24 4.31ZM40.05 7.11L37.93 11.80L35.77 7.11L34.24 7.11L37.25 13.23L35.46 16.76L36.97 16.76L41.55 7.11ZM49.80 4.19C47.71 4.19 46.27 5.28 46.27 7.03C46.27 10.64 51.98 8.88 51.98 11.28C51.98 12.25 51.10 12.88 49.83 12.88C48.37 12.88 47.53 12.07 47.52 10.96L45.99 10.96C46.05 12.85 47.47 14.13 49.76 14.13C51.98 14.13 53.54 13.02 53.54 11.23C53.54 7.52 47.82 9.35 47.82 6.94C47.82 6.01 48.62 5.43 49.76 5.43C50.97 5.43 51.76 6.10 51.80 7.22L53.28 7.22C53.24 5.36 51.81 4.19 49.80 4.19ZM58.21 6.99C56.08 6.99 54.53 8.48 54.53 10.56C54.53 12.63 56.08 14.13 58.21 14.13C60.34 14.13 61.88 12.63 61.88 10.56C61.88 8.48 60.34 6.99 58.21 6.99ZM58.20 8.23C59.49 8.23 60.41 9.21 60.41 10.56C60.41 11.91 59.49 12.88 58.20 12.88C56.92 12.88 56 11.91 56 10.56C56 9.21 56.92 8.23 58.20 8.23ZM65.86 5.40C66.01 5.40 66.21 5.43 66.39 5.50L66.39 4.24C66.21 4.20 66.00 4.19 65.84 4.19C64.53 4.19 63.60 5.01 63.60 6.19L63.60 7.11L62.61 7.11L62.61 8.32L63.60 8.32L63.60 14L65.03 14L65.03 8.32L66.39 8.32L66.39 7.11L65.03 7.11L65.03 6.19C65.03 5.71 65.38 5.40 65.86 5.40ZM71.18 7.11L69.62 7.11L69.62 5.33L68.18 5.33L68.18 7.11L66.91 7.11L66.91 8.32L68.18 8.32L68.18 14L69.62 14L69.62 8.32L71.18 8.32ZM81.09 7.11L79.42 12.82L77.73 7.11L76.41 7.11L74.72 12.82L73.05 7.11L71.57 7.11L73.70 14L75.52 14L77.07 9.11L78.62 14L80.44 14L82.57 7.11ZM89.00 7.11L89.00 8.11C88.40 7.41 87.51 6.99 86.49 6.99C84.55 6.99 83.12 8.48 83.12 10.56C83.12 12.63 84.55 14.13 86.49 14.13C87.51 14.13 88.40 13.71 89.00 13.01L89.00 14L90.43 14L90.43 7.11ZM86.79 12.88C85.51 12.88 84.59 11.91 84.59 10.56C84.59 9.21 85.51 8.23 86.79 8.23C88.07 8.23 89.00 9.21 89.00 10.56C89.00 11.91 88.07 12.88 86.79 12.88ZM93.62 8.72L93.62 7.11L92.19 7.11L92.19 14L93.62 14L93.62 10.60C93.62 9.18 94.61 8.34 96.21 8.34L96.21 6.93C94.99 6.93 94.08 7.59 93.62 8.72ZM104.03 10.57C104.02 8.48 102.49 6.99 100.37 6.99C98.24 6.99 96.68 8.48 96.68 10.56C96.68 12.63 98.24 14.13 100.37 14.13C102.06 14.13 103.53 13.03 103.92 11.51L102.47 11.51C102.20 12.33 101.36 12.95 100.38 12.95C99.19 12.95 98.28 12.15 98.10 11.00L103.99 11.00C104.02 10.86 104.03 10.71 104.03 10.57ZM100.38 8.16C101.51 8.16 102.42 8.88 102.66 9.90L98.14 9.90C98.39 8.86 99.26 8.16 100.38 8.16Z"></path></g><!----><!----><g data-v-423bf9ae="" id="119b0030-0059-44b8-82ba-51350577877e" fill="white" transform="matrix(4.758128599014577,0,0,4.758128599014577,-6.946860698632236,130.38303332654115)"><path d="M10.05 3.78L10.05 13.02L9.38 13.02L9.38 6.13L9.46 4.45L9.45 4.45L6.08 13.02L5.43 13.02L2.06 4.45L2.04 4.45L2.13 6.13L2.13 13.02L1.46 13.02L1.46 3.78L2.51 3.78L5.29 10.78L5.75 12.19L5.77 12.19L6.22 10.79L9.00 3.78L10.05 3.78ZM26.25 13.02L25.09 10.12L20.66 10.12L19.52 13.02L18.77 13.02L22.47 3.78L23.30 3.78L26.99 13.02L26.25 13.02ZM20.93 9.48L24.84 9.48L23.23 5.45L22.89 4.47L22.88 4.47L22.54 5.42L20.93 9.48ZM42.78 10.68L42.78 10.68Q42.39 11.86 41.42 12.51L41.42 12.51L41.42 12.51Q40.45 13.16 39.09 13.16L39.09 13.16L39.09 13.16Q37.83 13.16 36.88 12.58L36.88 12.58L36.88 12.58Q35.92 12.00 35.41 10.92L35.41 10.92L35.41 10.92Q34.89 9.84 34.89 8.40L34.89 8.40L34.89 8.40Q34.89 6.96 35.41 5.88L35.41 5.88L35.41 5.88Q35.92 4.80 36.88 4.22L36.88 4.22L36.88 4.22Q37.83 3.64 39.07 3.64L39.07 3.64L39.07 3.64Q41.85 3.64 42.66 5.92L42.66 5.92L41.97 6.24L41.97 6.24Q41.65 5.26 40.94 4.77L40.94 4.77L40.94 4.77Q40.24 4.28 39.12 4.28L39.12 4.28L39.12 4.28Q38.08 4.28 37.29 4.78L37.29 4.78L37.29 4.78Q36.50 5.28 36.06 6.21L36.06 6.21L36.06 6.21Q35.63 7.14 35.63 8.40L35.63 8.40L35.63 8.40Q35.63 9.66 36.06 10.59L36.06 10.59L36.06 10.59Q36.48 11.52 37.26 12.02L37.26 12.02L37.26 12.02Q38.04 12.52 39.09 12.52L39.09 12.52L39.09 12.52Q40.21 12.52 40.99 11.97L40.99 11.97L40.99 11.97Q41.78 11.42 42.08 10.42L42.08 10.42L42.78 10.68ZM52.54 3.78L52.54 13.02L51.84 13.02L51.84 3.78L52.54 3.78ZM63.15 12.38L68.99 12.38L68.99 13.02L62.45 13.02L62.45 3.78L68.77 3.78L68.77 4.42L63.15 4.42L63.15 7.99L67.59 7.99L67.59 8.65L63.15 8.65L63.15 12.38ZM82.54 3.78L82.54 9.97L82.54 9.97Q82.54 11.47 81.77 12.31L81.77 12.31L81.77 12.31Q81.00 13.16 79.60 13.16L79.60 13.16L79.60 13.16Q78.33 13.16 77.63 12.51L77.63 12.51L77.63 12.51Q76.93 11.86 76.93 10.74L76.93 10.74L76.93 10.74Q76.93 10.37 76.99 10.08L76.99 10.08L77.64 9.93L77.64 9.93Q77.60 10.26 77.60 10.57L77.60 10.57L77.60 10.57Q77.60 12.52 79.59 12.52L79.59 12.52L79.59 12.52Q80.77 12.52 81.31 11.83L81.31 11.83L81.31 11.83Q81.84 11.14 81.84 9.81L81.84 9.81L81.84 3.78L82.54 3.78ZM107.30 8.50L111.09 8.50L111.09 13.02L110.53 13.02L110.50 11.41L110.50 11.41Q110.12 12.25 109.32 12.71L109.32 12.71L109.32 12.71Q108.51 13.16 107.32 13.16L107.32 13.16L107.32 13.16Q106.06 13.16 105.12 12.58L105.12 12.58L105.12 12.58Q104.17 12.00 103.66 10.92L103.66 10.92L103.66 10.92Q103.15 9.84 103.15 8.40L103.15 8.40L103.15 8.40Q103.15 6.96 103.68 5.88L103.68 5.88L103.68 5.88Q104.20 4.80 105.15 4.22L105.15 4.22L105.15 4.22Q106.11 3.64 107.37 3.64L107.37 3.64L107.37 3.64Q108.78 3.64 109.68 4.20L109.68 4.20L109.68 4.20Q110.57 4.76 111.02 5.91L111.02 5.91L110.38 6.24L110.38 6.24Q110.05 5.28 109.29 4.78L109.29 4.78L109.29 4.78Q108.53 4.28 107.37 4.28L107.37 4.28L107.37 4.28Q106.33 4.28 105.55 4.78L105.55 4.78L105.55 4.78Q104.76 5.28 104.33 6.21L104.33 6.21L104.33 6.21Q103.89 7.14 103.89 8.40L103.89 8.40L103.89 8.40Q103.89 10.32 104.81 11.42L104.81 11.42L104.81 11.42Q105.73 12.52 107.35 12.52L107.35 12.52L107.35 12.52Q108.36 12.52 109.06 12.12L109.06 12.12L109.06 12.12Q109.76 11.72 110.10 11.07L110.10 11.07L110.10 11.07Q110.43 10.42 110.43 9.67L110.43 9.67L110.43 9.16L107.30 9.16L107.30 8.50ZM124.82 0.55L125.65 0.55L124.49 2.62L123.91 2.62L124.82 0.55ZM124.24 3.64L124.24 3.64Q125.54 3.64 126.50 4.22L126.50 4.22L126.50 4.22Q127.46 4.80 127.97 5.87L127.97 5.87L127.97 5.87Q128.49 6.94 128.49 8.40L128.49 8.40L128.49 8.40Q128.49 9.86 127.97 10.93L127.97 10.93L127.97 10.93Q127.46 12.00 126.50 12.58L126.50 12.58L126.50 12.58Q125.54 13.16 124.24 13.16L124.24 13.16L124.24 13.16Q122.93 13.16 121.98 12.58L121.98 12.58L121.98 12.58Q121.02 12.00 120.50 10.93L120.50 10.93L120.50 10.93Q119.98 9.86 119.98 8.40L119.98 8.40L119.98 8.40Q119.98 6.94 120.50 5.87L120.50 5.87L120.50 5.87Q121.02 4.80 121.98 4.22L121.98 4.22L121.98 4.22Q122.93 3.64 124.24 3.64L124.24 3.64ZM124.24 4.28L124.24 4.28Q123.16 4.28 122.37 4.78L122.37 4.78L122.37 4.78Q121.58 5.28 121.15 6.21L121.15 6.21L121.15 6.21Q120.72 7.14 120.72 8.40L120.72 8.40L120.72 8.40Q120.72 9.66 121.15 10.59L121.15 10.59L121.15 10.59Q121.58 11.52 122.37 12.02L122.37 12.02L122.37 12.02Q123.16 12.52 124.24 12.52L124.24 12.52L124.24 12.52Q125.31 12.52 126.11 12.02L126.11 12.02L126.11 12.02Q126.91 11.52 127.34 10.59L127.34 10.59L127.34 10.59Q127.76 9.66 127.76 8.40L127.76 8.40L127.76 8.40Q127.76 7.14 127.34 6.21L127.34 6.21L127.34 6.21Q126.91 5.28 126.11 4.78L126.11 4.78L126.11 4.78Q125.31 4.28 124.24 4.28L124.24 4.28ZM144.76 13.02L143.93 13.02L141.29 9.02L141.25 9.02L138.52 9.02L138.52 13.02L137.82 13.02L137.82 3.78L141.25 3.78L141.25 3.78Q142.63 3.78 143.45 4.48L143.45 4.48L143.45 4.48Q144.27 5.18 144.27 6.40L144.27 6.40L144.27 6.40Q144.27 7.41 143.68 8.07L143.68 8.07L143.68 8.07Q143.09 8.74 142.07 8.93L142.07 8.93L144.76 13.02ZM138.52 4.42L138.52 8.36L141.23 8.36L141.23 8.36Q142.35 8.36 142.95 7.85L142.95 7.85L142.95 7.85Q143.54 7.35 143.54 6.40L143.54 6.40L143.54 6.40Q143.54 5.45 142.95 4.93L142.95 4.93L142.95 4.93Q142.35 4.42 141.23 4.42L141.23 4.42L138.52 4.42ZM160.87 3.78L160.87 13.02L160.01 13.02L155.11 5.77L154.42 4.54L154.41 4.54L154.45 5.70L154.45 13.02L153.78 13.02L153.78 3.78L154.66 3.78L159.54 11.02L160.24 12.26L160.22 11.10L160.22 3.78L160.87 3.78ZM171.49 3.78L171.49 13.02L170.79 13.02L170.79 3.78L171.49 3.78ZM188.71 10.68L188.71 10.68Q188.31 11.86 187.34 12.51L187.34 12.51L187.34 12.51Q186.37 13.16 185.01 13.16L185.01 13.16L185.01 13.16Q183.75 13.16 182.80 12.58L182.80 12.58L182.80 12.58Q181.85 12.00 181.33 10.92L181.33 10.92L181.33 10.92Q180.81 9.84 180.81 8.40L180.81 8.40L180.81 8.40Q180.81 6.96 181.33 5.88L181.33 5.88L181.33 5.88Q181.85 4.80 182.80 4.22L182.80 4.22L182.80 4.22Q183.75 3.64 185.00 3.64L185.00 3.64L185.00 3.64Q187.77 3.64 188.58 5.92L188.58 5.92L187.89 6.24L187.89 6.24Q187.57 5.26 186.87 4.77L186.87 4.77L186.87 4.77Q186.16 4.28 185.04 4.28L185.04 4.28L185.04 4.28Q184.00 4.28 183.21 4.78L183.21 4.78L183.21 4.78Q182.42 5.28 181.99 6.21L181.99 6.21L181.99 6.21Q181.55 7.14 181.55 8.40L181.55 8.40L181.55 8.40Q181.55 9.66 181.98 10.59L181.98 10.59L181.98 10.59Q182.41 11.52 183.18 12.02L183.18 12.02L183.18 12.02Q183.96 12.52 185.01 12.52L185.01 12.52L185.01 12.52Q186.13 12.52 186.91 11.97L186.91 11.97L186.91 11.97Q187.70 11.42 188.01 10.42L188.01 10.42L188.71 10.68ZM203.70 13.02L200.31 8.04L198.46 9.91L198.46 13.02L197.76 13.02L197.76 3.78L198.46 3.78L198.46 8.96L203.53 3.78L204.46 3.78L200.80 7.52L204.55 13.02L203.70 13.02ZM214.00 3.78L214.00 13.02L213.30 13.02L213.30 3.78L214.00 3.78Z"></path></g></svg>